<mxfile host="app.diagrams.net" modified="2023-08-28T05:37:19.894Z" agent="Mozilla/5.0 (Windows NT 10.0; Win64; x64) AppleWebKit/537.36 (KHTML, like Gecko) Chrome/116.0.0.0 Safari/537.36 Edg/116.0.1938.62" etag="IEdv8Mez7EmVXhoo5CQP" version="21.6.9" type="device">
  <diagram name="Página-1" id="j-x9gxblYGBJuGQK0ccG">
    <mxGraphModel dx="1452" dy="1861" grid="1" gridSize="10" guides="1" tooltips="1" connect="1" arrows="1" fold="1" page="1" pageScale="1" pageWidth="827" pageHeight="1169" math="0" shadow="0">
      <root>
        <mxCell id="0" />
        <mxCell id="1" parent="0" />
        <mxCell id="MwyNYD0S4kKUE-O4JmLu-1" value="" style="rounded=0;whiteSpace=wrap;html=1;movable=1;resizable=1;rotatable=1;deletable=1;editable=1;locked=0;connectable=1;" parent="1" vertex="1">
          <mxGeometry width="830" height="30" as="geometry" />
        </mxCell>
        <mxCell id="MwyNYD0S4kKUE-O4JmLu-3" value="&lt;font style=&quot;font-size: 20px;&quot;&gt;&lt;b&gt;CRITICÓN&lt;/b&gt;&lt;/font&gt;" style="text;html=1;align=center;verticalAlign=middle;resizable=0;points=[];autosize=1;strokeColor=none;fillColor=none;" parent="1" vertex="1">
          <mxGeometry y="-4" width="120" height="40" as="geometry" />
        </mxCell>
        <mxCell id="MwyNYD0S4kKUE-O4JmLu-4" value="" style="rounded=0;whiteSpace=wrap;html=1;" parent="1" vertex="1">
          <mxGeometry x="670" y="5" width="120" height="20" as="geometry" />
        </mxCell>
        <mxCell id="MwyNYD0S4kKUE-O4JmLu-5" value="" style="html=1;verticalLabelPosition=bottom;align=center;labelBackgroundColor=#ffffff;verticalAlign=top;strokeWidth=2;strokeColor=#0080F0;shadow=0;dashed=0;shape=mxgraph.ios7.icons.looking_glass;" parent="1" vertex="1">
          <mxGeometry x="640" y="7.5" width="20" height="15" as="geometry" />
        </mxCell>
        <mxCell id="MwyNYD0S4kKUE-O4JmLu-6" value="&lt;font color=&quot;#c9c9c9&quot;&gt;search for releases...&lt;/font&gt;" style="text;html=1;align=center;verticalAlign=middle;resizable=0;points=[];autosize=1;strokeColor=none;fillColor=none;" parent="1" vertex="1">
          <mxGeometry x="660" width="140" height="30" as="geometry" />
        </mxCell>
        <mxCell id="MwyNYD0S4kKUE-O4JmLu-7" value="JUST DROPPED" style="rounded=0;whiteSpace=wrap;html=1;movable=1;resizable=1;rotatable=1;deletable=1;editable=1;locked=0;connectable=1;" parent="1" vertex="1">
          <mxGeometry y="30" width="200" height="30" as="geometry" />
        </mxCell>
        <mxCell id="MwyNYD0S4kKUE-O4JmLu-8" value="TRENDING" style="rounded=0;whiteSpace=wrap;html=1;movable=1;resizable=1;rotatable=1;deletable=1;editable=1;locked=0;connectable=1;" parent="1" vertex="1">
          <mxGeometry x="200" y="30" width="210" height="30" as="geometry" />
        </mxCell>
        <mxCell id="MwyNYD0S4kKUE-O4JmLu-9" value="BEST RATED" style="rounded=0;whiteSpace=wrap;html=1;movable=1;resizable=1;rotatable=1;deletable=1;editable=1;locked=0;connectable=1;" parent="1" vertex="1">
          <mxGeometry x="410" y="30" width="210" height="30" as="geometry" />
        </mxCell>
        <mxCell id="MwyNYD0S4kKUE-O4JmLu-10" value="REMOVE ADS?" style="rounded=0;whiteSpace=wrap;html=1;movable=1;resizable=1;rotatable=1;deletable=1;editable=1;locked=0;connectable=1;" parent="1" vertex="1">
          <mxGeometry x="620" y="30" width="210" height="30" as="geometry" />
        </mxCell>
        <mxCell id="MwyNYD0S4kKUE-O4JmLu-12" value="ads" style="rounded=1;whiteSpace=wrap;html=1;" parent="1" vertex="1">
          <mxGeometry x="300" y="2.5" width="220" height="25" as="geometry" />
        </mxCell>
        <mxCell id="MwyNYD0S4kKUE-O4JmLu-13" value="" style="whiteSpace=wrap;html=1;aspect=fixed;" parent="1" vertex="1">
          <mxGeometry x="35" y="90" width="130" height="130" as="geometry" />
        </mxCell>
        <mxCell id="MwyNYD0S4kKUE-O4JmLu-17" value="Feel The Panic EP" style="text;html=1;align=center;verticalAlign=middle;resizable=0;points=[];autosize=1;strokeColor=none;fillColor=none;" parent="1" vertex="1">
          <mxGeometry x="40" y="140" width="120" height="30" as="geometry" />
        </mxCell>
        <mxCell id="MwyNYD0S4kKUE-O4JmLu-18" value="Barely Alive" style="text;html=1;align=center;verticalAlign=middle;resizable=0;points=[];autosize=1;strokeColor=none;fillColor=none;" parent="1" vertex="1">
          <mxGeometry x="50" y="220" width="90" height="30" as="geometry" />
        </mxCell>
        <mxCell id="MwyNYD0S4kKUE-O4JmLu-23" value="" style="whiteSpace=wrap;html=1;aspect=fixed;" parent="1" vertex="1">
          <mxGeometry x="240" y="90" width="130" height="130" as="geometry" />
        </mxCell>
        <mxCell id="MwyNYD0S4kKUE-O4JmLu-24" value="Is something wrong?" style="text;html=1;align=center;verticalAlign=middle;resizable=0;points=[];autosize=1;strokeColor=none;fillColor=none;" parent="1" vertex="1">
          <mxGeometry x="240" y="140" width="130" height="30" as="geometry" />
        </mxCell>
        <mxCell id="MwyNYD0S4kKUE-O4JmLu-25" value="break" style="text;html=1;align=center;verticalAlign=middle;resizable=0;points=[];autosize=1;strokeColor=none;fillColor=none;" parent="1" vertex="1">
          <mxGeometry x="280" y="220" width="50" height="30" as="geometry" />
        </mxCell>
        <mxCell id="MwyNYD0S4kKUE-O4JmLu-26" value="" style="whiteSpace=wrap;html=1;aspect=fixed;" parent="1" vertex="1">
          <mxGeometry x="450" y="90" width="130" height="130" as="geometry" />
        </mxCell>
        <mxCell id="MwyNYD0S4kKUE-O4JmLu-27" value="The Invasion" style="text;html=1;align=center;verticalAlign=middle;resizable=0;points=[];autosize=1;strokeColor=none;fillColor=none;" parent="1" vertex="1">
          <mxGeometry x="470" y="230" width="90" height="30" as="geometry" />
        </mxCell>
        <mxCell id="MwyNYD0S4kKUE-O4JmLu-28" value="Destroid" style="text;html=1;align=center;verticalAlign=middle;resizable=0;points=[];autosize=1;strokeColor=none;fillColor=none;" parent="1" vertex="1">
          <mxGeometry x="480" y="250" width="70" height="30" as="geometry" />
        </mxCell>
        <mxCell id="MwyNYD0S4kKUE-O4JmLu-29" value="" style="whiteSpace=wrap;html=1;aspect=fixed;" parent="1" vertex="1">
          <mxGeometry x="660" y="90" width="130" height="130" as="geometry" />
        </mxCell>
        <mxCell id="MwyNYD0S4kKUE-O4JmLu-30" value="Faked it so much" style="text;html=1;align=center;verticalAlign=middle;resizable=0;points=[];autosize=1;strokeColor=none;fillColor=none;" parent="1" vertex="1">
          <mxGeometry x="670" y="230" width="110" height="30" as="geometry" />
        </mxCell>
        <mxCell id="MwyNYD0S4kKUE-O4JmLu-31" value="defsharp" style="text;html=1;align=center;verticalAlign=middle;resizable=0;points=[];autosize=1;strokeColor=none;fillColor=none;" parent="1" vertex="1">
          <mxGeometry x="690" y="250" width="70" height="30" as="geometry" />
        </mxCell>
        <mxCell id="MwyNYD0S4kKUE-O4JmLu-32" value="" style="whiteSpace=wrap;html=1;aspect=fixed;" parent="1" vertex="1">
          <mxGeometry x="35" y="290" width="130" height="130" as="geometry" />
        </mxCell>
        <mxCell id="MwyNYD0S4kKUE-O4JmLu-33" value="Feel The Panic EP" style="text;html=1;align=center;verticalAlign=middle;resizable=0;points=[];autosize=1;strokeColor=none;fillColor=none;" parent="1" vertex="1">
          <mxGeometry x="40" y="430" width="120" height="30" as="geometry" />
        </mxCell>
        <mxCell id="MwyNYD0S4kKUE-O4JmLu-34" value="Barely Alive" style="text;html=1;align=center;verticalAlign=middle;resizable=0;points=[];autosize=1;strokeColor=none;fillColor=none;" parent="1" vertex="1">
          <mxGeometry x="55" y="450" width="90" height="30" as="geometry" />
        </mxCell>
        <mxCell id="MwyNYD0S4kKUE-O4JmLu-35" value="" style="whiteSpace=wrap;html=1;aspect=fixed;" parent="1" vertex="1">
          <mxGeometry x="240" y="290" width="130" height="130" as="geometry" />
        </mxCell>
        <mxCell id="MwyNYD0S4kKUE-O4JmLu-36" value="Is something wrong? EP" style="text;html=1;align=center;verticalAlign=middle;resizable=0;points=[];autosize=1;strokeColor=none;fillColor=none;" parent="1" vertex="1">
          <mxGeometry x="230" y="430" width="150" height="30" as="geometry" />
        </mxCell>
        <mxCell id="MwyNYD0S4kKUE-O4JmLu-37" value="break" style="text;html=1;align=center;verticalAlign=middle;resizable=0;points=[];autosize=1;strokeColor=none;fillColor=none;" parent="1" vertex="1">
          <mxGeometry x="280" y="450" width="50" height="30" as="geometry" />
        </mxCell>
        <mxCell id="MwyNYD0S4kKUE-O4JmLu-38" value="" style="whiteSpace=wrap;html=1;aspect=fixed;" parent="1" vertex="1">
          <mxGeometry x="450" y="290" width="130" height="130" as="geometry" />
        </mxCell>
        <mxCell id="MwyNYD0S4kKUE-O4JmLu-39" value="The Invasion" style="text;html=1;align=center;verticalAlign=middle;resizable=0;points=[];autosize=1;strokeColor=none;fillColor=none;" parent="1" vertex="1">
          <mxGeometry x="470" y="430" width="90" height="30" as="geometry" />
        </mxCell>
        <mxCell id="MwyNYD0S4kKUE-O4JmLu-40" value="Destroid" style="text;html=1;align=center;verticalAlign=middle;resizable=0;points=[];autosize=1;strokeColor=none;fillColor=none;" parent="1" vertex="1">
          <mxGeometry x="480" y="450" width="70" height="30" as="geometry" />
        </mxCell>
        <mxCell id="MwyNYD0S4kKUE-O4JmLu-41" value="" style="whiteSpace=wrap;html=1;aspect=fixed;" parent="1" vertex="1">
          <mxGeometry x="660" y="290" width="130" height="130" as="geometry" />
        </mxCell>
        <mxCell id="MwyNYD0S4kKUE-O4JmLu-42" value="Faked it so much" style="text;html=1;align=center;verticalAlign=middle;resizable=0;points=[];autosize=1;strokeColor=none;fillColor=none;" parent="1" vertex="1">
          <mxGeometry x="670" y="430" width="110" height="30" as="geometry" />
        </mxCell>
        <mxCell id="MwyNYD0S4kKUE-O4JmLu-43" value="defsharp" style="text;html=1;align=center;verticalAlign=middle;resizable=0;points=[];autosize=1;strokeColor=none;fillColor=none;" parent="1" vertex="1">
          <mxGeometry x="690" y="450" width="70" height="30" as="geometry" />
        </mxCell>
        <mxCell id="MwyNYD0S4kKUE-O4JmLu-44" value="" style="endArrow=none;html=1;rounded=0;entryX=0;entryY=1;entryDx=0;entryDy=0;" parent="1" target="MwyNYD0S4kKUE-O4JmLu-7" edge="1">
          <mxGeometry width="50" height="50" relative="1" as="geometry">
            <mxPoint y="520" as="sourcePoint" />
            <mxPoint x="370" y="310" as="targetPoint" />
          </mxGeometry>
        </mxCell>
        <mxCell id="MwyNYD0S4kKUE-O4JmLu-45" value="" style="endArrow=none;html=1;rounded=0;entryX=1;entryY=1;entryDx=0;entryDy=0;" parent="1" target="MwyNYD0S4kKUE-O4JmLu-10" edge="1">
          <mxGeometry width="50" height="50" relative="1" as="geometry">
            <mxPoint x="830" y="520" as="sourcePoint" />
            <mxPoint x="830" y="80" as="targetPoint" />
          </mxGeometry>
        </mxCell>
        <mxCell id="MwyNYD0S4kKUE-O4JmLu-47" value="" style="endArrow=none;html=1;rounded=0;" parent="1" edge="1">
          <mxGeometry width="50" height="50" relative="1" as="geometry">
            <mxPoint x="800" y="21.9" as="sourcePoint" />
            <mxPoint x="820" y="21.9" as="targetPoint" />
            <Array as="points" />
          </mxGeometry>
        </mxCell>
        <mxCell id="MwyNYD0S4kKUE-O4JmLu-48" value="" style="endArrow=none;html=1;rounded=0;" parent="1" edge="1">
          <mxGeometry width="50" height="50" relative="1" as="geometry">
            <mxPoint x="800" y="14.899999999999999" as="sourcePoint" />
            <mxPoint x="820" y="14.899999999999999" as="targetPoint" />
            <Array as="points" />
          </mxGeometry>
        </mxCell>
        <mxCell id="MwyNYD0S4kKUE-O4JmLu-49" value="" style="endArrow=none;html=1;rounded=0;" parent="1" edge="1">
          <mxGeometry width="50" height="50" relative="1" as="geometry">
            <mxPoint x="800" y="7.899999999999999" as="sourcePoint" />
            <mxPoint x="820" y="7.899999999999999" as="targetPoint" />
            <Array as="points" />
          </mxGeometry>
        </mxCell>
        <mxCell id="MwyNYD0S4kKUE-O4JmLu-51" value="" style="endArrow=none;dashed=1;html=1;dashPattern=1 3;strokeWidth=2;rounded=0;" parent="1" edge="1">
          <mxGeometry width="50" height="50" relative="1" as="geometry">
            <mxPoint x="40" y="520" as="sourcePoint" />
            <mxPoint x="800" y="520" as="targetPoint" />
          </mxGeometry>
        </mxCell>
        <mxCell id="MwyNYD0S4kKUE-O4JmLu-52" value="" style="shape=image;html=1;verticalAlign=top;verticalLabelPosition=bottom;labelBackgroundColor=#ffffff;imageAspect=0;aspect=fixed;image=https://cdn1.iconfinder.com/data/icons/social-media-circle-7/512/Circled_Instagram_svg-128.png" parent="1" vertex="1">
          <mxGeometry x="319" y="564.75" width="40" height="40" as="geometry" />
        </mxCell>
        <mxCell id="MwyNYD0S4kKUE-O4JmLu-54" value="" style="shape=image;html=1;verticalAlign=top;verticalLabelPosition=bottom;labelBackgroundColor=#ffffff;imageAspect=0;aspect=fixed;image=https://cdn2.iconfinder.com/data/icons/social-media-2421/512/Telegram-128.png" parent="1" vertex="1">
          <mxGeometry x="470" y="565.25" width="39" height="39" as="geometry" />
        </mxCell>
        <mxCell id="MwyNYD0S4kKUE-O4JmLu-55" value="" style="shape=image;html=1;verticalAlign=top;verticalLabelPosition=bottom;labelBackgroundColor=#ffffff;imageAspect=0;aspect=fixed;image=https://cdn1.iconfinder.com/data/icons/social-media-circle-7/512/Circled_Facebook_svg-128.png" parent="1" vertex="1">
          <mxGeometry x="419" y="565.25" width="40" height="40" as="geometry" />
        </mxCell>
        <mxCell id="MwyNYD0S4kKUE-O4JmLu-58" value="" style="shape=image;html=1;verticalAlign=top;verticalLabelPosition=bottom;labelBackgroundColor=#ffffff;imageAspect=0;aspect=fixed;image=https://cdn1.iconfinder.com/data/icons/social-media-circle-7/512/Circled_Twitter_svg-128.png" parent="1" vertex="1">
          <mxGeometry x="367.5" y="564" width="41.25" height="41.25" as="geometry" />
        </mxCell>
        <mxCell id="MwyNYD0S4kKUE-O4JmLu-60" value="Follow our socials" style="text;html=1;align=center;verticalAlign=middle;resizable=0;points=[];autosize=1;strokeColor=none;fillColor=none;" parent="1" vertex="1">
          <mxGeometry x="350" y="530" width="120" height="30" as="geometry" />
        </mxCell>
        <mxCell id="MwyNYD0S4kKUE-O4JmLu-61" value="" style="endArrow=none;dashed=1;html=1;dashPattern=1 3;strokeWidth=2;rounded=0;" parent="1" edge="1">
          <mxGeometry width="50" height="50" relative="1" as="geometry">
            <mxPoint x="40" y="620" as="sourcePoint" />
            <mxPoint x="800" y="620" as="targetPoint" />
          </mxGeometry>
        </mxCell>
        <mxCell id="MwyNYD0S4kKUE-O4JmLu-62" value="Text" style="text;html=1;align=center;verticalAlign=middle;resizable=0;points=[];autosize=1;strokeColor=none;fillColor=none;" parent="1" vertex="1">
          <mxGeometry x="295" y="628" width="50" height="30" as="geometry" />
        </mxCell>
        <mxCell id="MwyNYD0S4kKUE-O4JmLu-63" value="" style="rounded=0;whiteSpace=wrap;html=1;movable=1;resizable=1;rotatable=1;deletable=1;editable=1;locked=0;connectable=1;" parent="1" vertex="1">
          <mxGeometry x="880" y="4" width="830" height="30" as="geometry" />
        </mxCell>
        <mxCell id="MwyNYD0S4kKUE-O4JmLu-64" value="&lt;font style=&quot;font-size: 20px;&quot;&gt;&lt;b&gt;CRITICÓN&lt;/b&gt;&lt;/font&gt;" style="text;html=1;align=center;verticalAlign=middle;resizable=0;points=[];autosize=1;strokeColor=none;fillColor=none;" parent="1" vertex="1">
          <mxGeometry x="880" width="120" height="40" as="geometry" />
        </mxCell>
        <mxCell id="MwyNYD0S4kKUE-O4JmLu-65" value="" style="rounded=0;whiteSpace=wrap;html=1;" parent="1" vertex="1">
          <mxGeometry x="1550" y="9" width="120" height="20" as="geometry" />
        </mxCell>
        <mxCell id="MwyNYD0S4kKUE-O4JmLu-66" value="" style="html=1;verticalLabelPosition=bottom;align=center;labelBackgroundColor=#ffffff;verticalAlign=top;strokeWidth=2;strokeColor=#0080F0;shadow=0;dashed=0;shape=mxgraph.ios7.icons.looking_glass;" parent="1" vertex="1">
          <mxGeometry x="1520" y="11.5" width="20" height="15" as="geometry" />
        </mxCell>
        <mxCell id="MwyNYD0S4kKUE-O4JmLu-67" value="&lt;font color=&quot;#c9c9c9&quot;&gt;search for releases...&lt;/font&gt;" style="text;html=1;align=center;verticalAlign=middle;resizable=0;points=[];autosize=1;strokeColor=none;fillColor=none;" parent="1" vertex="1">
          <mxGeometry x="1540" y="4" width="140" height="30" as="geometry" />
        </mxCell>
        <mxCell id="MwyNYD0S4kKUE-O4JmLu-68" value="JUST DROPPED" style="rounded=0;whiteSpace=wrap;html=1;movable=1;resizable=1;rotatable=1;deletable=1;editable=1;locked=0;connectable=1;" parent="1" vertex="1">
          <mxGeometry x="880" y="34" width="200" height="30" as="geometry" />
        </mxCell>
        <mxCell id="MwyNYD0S4kKUE-O4JmLu-69" value="TRENDING" style="rounded=0;whiteSpace=wrap;html=1;movable=1;resizable=1;rotatable=1;deletable=1;editable=1;locked=0;connectable=1;" parent="1" vertex="1">
          <mxGeometry x="1080" y="34" width="210" height="30" as="geometry" />
        </mxCell>
        <mxCell id="MwyNYD0S4kKUE-O4JmLu-70" value="BEST RATED" style="rounded=0;whiteSpace=wrap;html=1;movable=1;resizable=1;rotatable=1;deletable=1;editable=1;locked=0;connectable=1;" parent="1" vertex="1">
          <mxGeometry x="1290" y="34" width="210" height="30" as="geometry" />
        </mxCell>
        <mxCell id="MwyNYD0S4kKUE-O4JmLu-71" value="REMOVE ADS?" style="rounded=0;whiteSpace=wrap;html=1;movable=1;resizable=1;rotatable=1;deletable=1;editable=1;locked=0;connectable=1;" parent="1" vertex="1">
          <mxGeometry x="1500" y="34" width="210" height="30" as="geometry" />
        </mxCell>
        <mxCell id="MwyNYD0S4kKUE-O4JmLu-72" value="ads" style="rounded=1;whiteSpace=wrap;html=1;" parent="1" vertex="1">
          <mxGeometry x="1180" y="6.5" width="220" height="25" as="geometry" />
        </mxCell>
        <mxCell id="MwyNYD0S4kKUE-O4JmLu-97" value="" style="endArrow=none;html=1;rounded=0;entryX=0;entryY=1;entryDx=0;entryDy=0;" parent="1" target="MwyNYD0S4kKUE-O4JmLu-68" edge="1">
          <mxGeometry width="50" height="50" relative="1" as="geometry">
            <mxPoint x="880" y="524" as="sourcePoint" />
            <mxPoint x="1250" y="314" as="targetPoint" />
          </mxGeometry>
        </mxCell>
        <mxCell id="MwyNYD0S4kKUE-O4JmLu-98" value="" style="endArrow=none;html=1;rounded=0;entryX=1;entryY=1;entryDx=0;entryDy=0;" parent="1" target="MwyNYD0S4kKUE-O4JmLu-71" edge="1">
          <mxGeometry width="50" height="50" relative="1" as="geometry">
            <mxPoint x="1710" y="524" as="sourcePoint" />
            <mxPoint x="1710" y="84" as="targetPoint" />
          </mxGeometry>
        </mxCell>
        <mxCell id="MwyNYD0S4kKUE-O4JmLu-100" value="" style="endArrow=none;html=1;rounded=0;" parent="1" edge="1">
          <mxGeometry width="50" height="50" relative="1" as="geometry">
            <mxPoint x="1680" y="25.9" as="sourcePoint" />
            <mxPoint x="1700" y="25.9" as="targetPoint" />
            <Array as="points" />
          </mxGeometry>
        </mxCell>
        <mxCell id="MwyNYD0S4kKUE-O4JmLu-101" value="" style="endArrow=none;html=1;rounded=0;" parent="1" edge="1">
          <mxGeometry width="50" height="50" relative="1" as="geometry">
            <mxPoint x="1680" y="18.9" as="sourcePoint" />
            <mxPoint x="1700" y="18.9" as="targetPoint" />
            <Array as="points" />
          </mxGeometry>
        </mxCell>
        <mxCell id="MwyNYD0S4kKUE-O4JmLu-102" value="" style="endArrow=none;html=1;rounded=0;" parent="1" edge="1">
          <mxGeometry width="50" height="50" relative="1" as="geometry">
            <mxPoint x="1680" y="11.899999999999999" as="sourcePoint" />
            <mxPoint x="1700" y="11.899999999999999" as="targetPoint" />
            <Array as="points" />
          </mxGeometry>
        </mxCell>
        <mxCell id="MwyNYD0S4kKUE-O4JmLu-104" value="" style="endArrow=none;dashed=1;html=1;dashPattern=1 3;strokeWidth=2;rounded=0;" parent="1" edge="1">
          <mxGeometry width="50" height="50" relative="1" as="geometry">
            <mxPoint x="920" y="554" as="sourcePoint" />
            <mxPoint x="1680" y="554" as="targetPoint" />
          </mxGeometry>
        </mxCell>
        <mxCell id="MwyNYD0S4kKUE-O4JmLu-105" value="" style="shape=image;html=1;verticalAlign=top;verticalLabelPosition=bottom;labelBackgroundColor=#ffffff;imageAspect=0;aspect=fixed;image=https://cdn1.iconfinder.com/data/icons/social-media-circle-7/512/Circled_Instagram_svg-128.png" parent="1" vertex="1">
          <mxGeometry x="1199" y="598.75" width="40" height="40" as="geometry" />
        </mxCell>
        <mxCell id="MwyNYD0S4kKUE-O4JmLu-106" value="" style="shape=image;html=1;verticalAlign=top;verticalLabelPosition=bottom;labelBackgroundColor=#ffffff;imageAspect=0;aspect=fixed;image=https://cdn2.iconfinder.com/data/icons/social-media-2421/512/Telegram-128.png" parent="1" vertex="1">
          <mxGeometry x="1350" y="599.25" width="39" height="39" as="geometry" />
        </mxCell>
        <mxCell id="MwyNYD0S4kKUE-O4JmLu-107" value="" style="shape=image;html=1;verticalAlign=top;verticalLabelPosition=bottom;labelBackgroundColor=#ffffff;imageAspect=0;aspect=fixed;image=https://cdn1.iconfinder.com/data/icons/social-media-circle-7/512/Circled_Facebook_svg-128.png" parent="1" vertex="1">
          <mxGeometry x="1299" y="599.25" width="40" height="40" as="geometry" />
        </mxCell>
        <mxCell id="MwyNYD0S4kKUE-O4JmLu-108" value="" style="shape=image;html=1;verticalAlign=top;verticalLabelPosition=bottom;labelBackgroundColor=#ffffff;imageAspect=0;aspect=fixed;image=https://cdn1.iconfinder.com/data/icons/social-media-circle-7/512/Circled_Twitter_svg-128.png" parent="1" vertex="1">
          <mxGeometry x="1247.5" y="598" width="41.25" height="41.25" as="geometry" />
        </mxCell>
        <mxCell id="MwyNYD0S4kKUE-O4JmLu-109" value="Follow our socials" style="text;html=1;align=center;verticalAlign=middle;resizable=0;points=[];autosize=1;strokeColor=none;fillColor=none;" parent="1" vertex="1">
          <mxGeometry x="1230" y="564" width="120" height="30" as="geometry" />
        </mxCell>
        <mxCell id="MwyNYD0S4kKUE-O4JmLu-110" value="" style="endArrow=none;dashed=1;html=1;dashPattern=1 3;strokeWidth=2;rounded=0;" parent="1" edge="1">
          <mxGeometry width="50" height="50" relative="1" as="geometry">
            <mxPoint x="920" y="654" as="sourcePoint" />
            <mxPoint x="1680" y="654" as="targetPoint" />
          </mxGeometry>
        </mxCell>
        <mxCell id="MwyNYD0S4kKUE-O4JmLu-111" value="Text" style="text;html=1;align=center;verticalAlign=middle;resizable=0;points=[];autosize=1;strokeColor=none;fillColor=none;" parent="1" vertex="1">
          <mxGeometry x="1175" y="662" width="50" height="30" as="geometry" />
        </mxCell>
        <mxCell id="MwyNYD0S4kKUE-O4JmLu-112" value="&lt;font style=&quot;font-size: 30px;&quot;&gt;&amp;lt;EMBED&amp;gt;&lt;/font&gt;" style="rounded=0;whiteSpace=wrap;html=1;" parent="1" vertex="1">
          <mxGeometry x="920" y="120" width="520" height="300" as="geometry" />
        </mxCell>
        <mxCell id="MwyNYD0S4kKUE-O4JmLu-113" value="ADS" style="rounded=0;whiteSpace=wrap;html=1;" parent="1" vertex="1">
          <mxGeometry x="1470" y="120" width="210" height="70" as="geometry" />
        </mxCell>
        <mxCell id="MwyNYD0S4kKUE-O4JmLu-114" value="" style="rounded=0;whiteSpace=wrap;html=1;" parent="1" vertex="1">
          <mxGeometry x="1470" y="210" width="210" height="210" as="geometry" />
        </mxCell>
        <mxCell id="MwyNYD0S4kKUE-O4JmLu-115" value="&lt;h1&gt;&lt;span style=&quot;background-color: initial;&quot;&gt;Lirycs&lt;/span&gt;&lt;/h1&gt;&lt;h1&gt;&lt;span style=&quot;background-color: initial; font-size: 12px; font-weight: normal;&quot;&gt;Lorem ipsum dolor sit amet, consectetur adipisicing elit, sed do eiusmod tempor incididunt ut labore et dolore magna aliqua.&lt;/span&gt;&lt;br&gt;&lt;/h1&gt;" style="text;html=1;strokeColor=none;fillColor=none;spacing=5;spacingTop=-20;whiteSpace=wrap;overflow=hidden;rounded=0;" parent="1" vertex="1">
          <mxGeometry x="1480" y="215" width="190" height="195" as="geometry" />
        </mxCell>
        <mxCell id="MwyNYD0S4kKUE-O4JmLu-116" value="&lt;h1&gt;titulo de review&lt;/h1&gt;&lt;p&gt;Lorem ipsum dolor sit amet, consectetur adipisicing elit, sed do eiusmod tempor incididunt ut labore et dolore magna aliqua.&lt;/p&gt;" style="text;html=1;strokeColor=none;fillColor=none;spacing=5;spacingTop=-20;whiteSpace=wrap;overflow=hidden;rounded=0;" parent="1" vertex="1">
          <mxGeometry x="920" y="430" width="750" height="110" as="geometry" />
        </mxCell>
        <mxCell id="MwyNYD0S4kKUE-O4JmLu-120" value="Inicio" style="shape=step;perimeter=stepPerimeter;whiteSpace=wrap;html=1;fixedSize=1;size=10;" parent="1" vertex="1">
          <mxGeometry x="890" y="70" width="60" height="20" as="geometry" />
        </mxCell>
        <mxCell id="MwyNYD0S4kKUE-O4JmLu-121" value="Just dropped" style="shape=step;perimeter=stepPerimeter;whiteSpace=wrap;html=1;fixedSize=1;size=10;" parent="1" vertex="1">
          <mxGeometry x="1030" y="70" width="100" height="20" as="geometry" />
        </mxCell>
        <mxCell id="MwyNYD0S4kKUE-O4JmLu-122" value="Barely Alive - Feel The Panic EP" style="shape=step;perimeter=stepPerimeter;whiteSpace=wrap;html=1;fixedSize=1;size=10;" parent="1" vertex="1">
          <mxGeometry x="1130" y="70" width="200" height="20" as="geometry" />
        </mxCell>
        <mxCell id="MwyNYD0S4kKUE-O4JmLu-123" value="NiCXiDE" style="shape=step;perimeter=stepPerimeter;whiteSpace=wrap;html=1;fixedSize=1;size=10;" parent="1" vertex="1">
          <mxGeometry x="950" y="70" width="80" height="20" as="geometry" />
        </mxCell>
      </root>
    </mxGraphModel>
  </diagram>
</mxfile>
